<?xml version="1.0" standalone="no"?>
<!DOCTYPE svg PUBLIC "-//W3C//DTD SVG 20010904//EN"
 "http://www.w3.org/TR/2001/REC-SVG-20010904/DTD/svg10.dtd">
<svg version="1.0" xmlns="http://www.w3.org/2000/svg"
 width="686.000000pt" height="650.000000pt" viewBox="0 0 686.000000 650.000000"
 preserveAspectRatio="xMidYMid meet">

<g transform="translate(0.000000,650.000000) scale(0.100000,-0.100000)"
fill="#000000" stroke="none">
<path d="M4520 6434 c-90 -14 -166 -26 -168 -29 -2 -2 42 -99 98 -217 165
-344 181 -409 220 -893 29 -359 47 -525 81 -740 52 -339 139 -649 193 -694 15
-12 28 -12 96 3 334 71 901 405 1234 726 170 163 302 336 401 522 114 216 173
480 129 574 -17 36 -35 44 -299 140 -66 24 -181 66 -255 94 -258 97 -907 336
-1254 461 -250 90 -233 88 -476 53z"/>
<path d="M3989 6296 c-2 -2 -87 -11 -189 -20 -558 -50 -797 -106 -1030 -240
-238 -137 -444 -356 -590 -628 -23 -43 -47 -78 -53 -78 -7 0 -68 -7 -137 -15
-69 -8 -251 -26 -405 -40 -154 -14 -395 -37 -535 -51 -140 -13 -379 -36 -530
-49 -151 -14 -290 -28 -308 -31 -147 -27 -181 -327 -74 -634 l19 -55 49 2
c188 9 418 119 539 255 61 70 107 165 113 234 3 37 9 54 18 54 10 0 128 -53
173 -77 9 -5 -47 -146 -83 -208 -56 -96 -198 -237 -303 -299 -103 -61 -250
-112 -370 -128 -51 -7 -93 -15 -93 -19 0 -26 59 -175 88 -224 33 -55 36 -65
34 -125 -4 -80 15 -154 63 -251 187 -373 518 -524 1345 -614 755 -81 1184
-249 1510 -591 199 -208 316 -436 382 -738 19 -87 22 -133 23 -326 0 -197 -3
-239 -23 -339 -54 -268 -185 -575 -355 -834 -42 -65 -77 -120 -77 -122 0 -2
27 9 59 26 33 16 62 29 65 29 7 0 451 198 676 302 1003 463 1589 856 1960
1312 164 202 324 486 391 692 l32 101 -38 149 c-115 452 -254 881 -383 1179
-36 85 -24 85 -168 -7 -316 -202 -642 -328 -855 -328 -193 0 -293 129 -398
512 -85 309 -135 662 -176 1238 -28 394 -39 442 -164 691 -129 258 -173 322
-202 295z"/>
</g>
</svg>
